<?xml version="1.0" encoding="UTF-8" standalone="no"?>
<svg
   xmlns:dc="http://purl.org/dc/elements/1.1/"
   xmlns:cc="http://creativecommons.org/ns#"
   xmlns:rdf="http://www.w3.org/1999/02/22-rdf-syntax-ns#"
   xmlns:svg="http://www.w3.org/2000/svg"
   xmlns="http://www.w3.org/2000/svg"
   xmlns:sodipodi="http://sodipodi.sourceforge.net/DTD/sodipodi-0.dtd"
   xmlns:inkscape="http://www.inkscape.org/namespaces/inkscape"
   id="emoji"
   viewBox="0 0 72 72"
   version="1.1"
   sodipodi:docname="Bass_Fill_White.svg"
   inkscape:version="0.92.4 (5da689c313, 2019-01-14)">
  <metadata
     id="metadata4646">
    <rdf:RDF>
      <cc:Work
         rdf:about="">
        <dc:format>image/svg+xml</dc:format>
        <dc:type
           rdf:resource="http://purl.org/dc/dcmitype/StillImage" />
        <dc:title></dc:title>
      </cc:Work>
    </rdf:RDF>
  </metadata>
  <defs
     id="defs4644" />
  <sodipodi:namedview
     pagecolor="#ffffff"
     bordercolor="#666666"
     borderopacity="1"
     objecttolerance="10"
     gridtolerance="10"
     guidetolerance="10"
     inkscape:pageopacity="0"
     inkscape:pageshadow="2"
     inkscape:window-width="3840"
     inkscape:window-height="2054"
     id="namedview4642"
     showgrid="false"
     inkscape:zoom="13.111111"
     inkscape:cx="12.38368"
     inkscape:cy="17.50778"
     inkscape:window-x="-11"
     inkscape:window-y="-11"
     inkscape:window-maximized="1"
     inkscape:current-layer="line" />
  <g
     id="line">
    <g
       id="g5196"
       style="fill:#ffffff;fill-opacity:1;stroke:#ffffff;stroke-opacity:1"
       transform="matrix(-1,0,0,1,71.875461,0)" />
    <g
       id="g5234"
       transform="translate(2.8983051,2.059322)"
       style="fill:#ffffff;fill-opacity:1;stroke:#ffffff;stroke-opacity:1">
      <path
         stroke-miterlimit="10"
         d="m 59.026152,17.032308 c 0,0 1.3423,-0.0178 2.2362,-0.5799 0.8941,-0.562 1.0716,-1.066 1.0637,-1.542 -0.0079,-0.476 0.7356,-2.3263 2.3062,-2.7289 1.5708,-0.4028 2.4877,-1.2997 2.128,-2.2505997 -0.3598,-0.9508 -2.1142,-0.6964 -2.5538,-0.6898 -0.4397,0.0066 -3.1881,1.6712997 -3.1881,1.6712997 0,0 -3.5106,2.3476 -3.9665,2.9203 -0.4557,0.5728 -0.5206,1.0193 -0.5206,1.0193 l -19.6763,18.2564"
         id="path4634"
         inkscape:connector-curvature="0"
         style="fill:#ffffff;fill-opacity:1;stroke:#ffffff;stroke-width:2;stroke-linecap:round;stroke-linejoin:round;stroke-miterlimit:10;stroke-opacity:1"
         sodipodi:nodetypes="ccsccccccc"
         transform="matrix(-1,0,0,1,71.875461,0)" />
      <path
         sodipodi:nodetypes="cccccccsscccccccccccc"
         inkscape:connector-curvature="0"
         d="m 58.216465,16.492962 -9.408294,8.11386 -15.833562,17.260366 C 39.474932,35.267643 51.827749,23.111606 58.216465,16.492962 Z M 30.1674,38.3398 c -0.6184,-1.6047 -0.6911,-3.4291 -0.0767,-5.1788 0.8444,-2.4046 3.2143,-5.4706 3.2061,-5.5286 -0.036,-0.2561 -2.4648,-0.6658 -4.0754,1.2156 -1.6106,1.8814 -1.9747,3.5723 -2.4923,4.7953 -0.5176,1.223 -0.6392,1.4866 -1.4695,2.7743 -0.7821,1.2129 -2.3485,2.2248 -3.7112,2.4143 -1.3627,0.1894 -3.5669,0.6275 -6.2429,2.6452 -3.1998,2.4126 -5.3398,8.5125 -1.546,13.664 1.7344,2.355 6.314,5.2555 11.4299,3.3176 3.7656,-1.4265 5.0953,-3.635 5.5126,-4.6436 0.5701,-1.378 0.8892,-3.167 0.9549,-3.6356 0.1095,-0.7806 -0.0477,-1.6554 1.7554,-2.3604 1.8031,-0.7051 3.987,-1.7099 4.5698,-2.3949 0.6572,-0.7728 0.7207,-1.5145 0.4697,-2.1736 -0.1366,0.0216 -1.1682,0.3697 -3.1645,-0.0969 -1.9963,-0.4665 -2.0687,-1.1225 -2.3125,-1.2866"
         style="fill:#ffffff;fill-opacity:1;stroke:#ffffff;stroke-width:2;stroke-linecap:round;stroke-linejoin:round;stroke-miterlimit:10;stroke-opacity:1"
         id="path5191"
         transform="matrix(-1,0,0,1,71.875461,0)" />
      <path
         inkscape:connector-curvature="0"
         id="path5227"
         d="m 38.900661,41.8671 2.8074,-3.5273 L 26.150885,24.902542 22.909359,25.550847 38.900661,41.8671"
         style="fill:#ffffff;fill-opacity:1;stroke:#ffffff;stroke-width:1px;stroke-linecap:butt;stroke-linejoin:miter;stroke-opacity:1" />
    </g>
  </g>
</svg>
